<?xml version="1.0" encoding="UTF-8"?>
<svg width="206px" height="20px" viewBox="0 0 206 20" version="1.1" xmlns="http://www.w3.org/2000/svg" xmlns:xlink="http://www.w3.org/1999/xlink">
    <!-- Generator: Sketch 63.1 (92452) - https://sketch.com -->
    <title>Group 2</title>
    <desc>Created with Sketch.</desc>
    <g id="Home" stroke="none" stroke-width="1" fill="none" fill-rule="evenodd">
        <g id="Home-page" transform="translate(-206.000000, -50.000000)" fill-rule="nonzero">
            <g id="header" transform="translate(0.000000, -40.000000)">
                <g id="middle-row" transform="translate(0.000000, 40.000000)">
                    <g id="Group-2" transform="translate(206.687012, 50.900000)">
                        <path d="M135.537988,18.1 L135.537988,16.675 L134.462988,16.675 C134.079655,16.675 133.779655,16.5833333 133.562988,16.4 C133.346322,16.2166667 133.237988,15.7833333 133.237988,15.1 L133.237988,15.1 L133.237988,4.575 L143.137988,18.1 L145.637988,18.1 L145.637988,3.25 C145.637988,2.61666667 145.754655,2.19583333 145.987988,1.9875 C146.221322,1.77916667 146.521322,1.675 146.887988,1.675 L146.887988,1.675 L147.962988,1.675 L147.962988,0.25 L141.337988,0.25 L141.337988,1.675 L142.412988,1.675 C142.746322,1.675 143.033822,1.775 143.275488,1.975 C143.517155,2.175 143.637988,2.56666667 143.637988,3.15 L143.637988,3.15 L143.637988,12.175 L134.862988,0.25 L128.912988,0.25 L128.912988,1.675 L129.962988,1.675 C130.296322,1.675 130.592155,1.7625 130.850488,1.9375 C131.108822,2.1125 131.237988,2.51666667 131.237988,3.15 L131.237988,3.15 L131.237988,15.1 C131.237988,15.7833333 131.108822,16.2166667 130.850488,16.4 C130.592155,16.5833333 130.254655,16.675 129.837988,16.675 L129.837988,16.675 L128.912988,16.675 L128.912988,18.1 L135.537988,18.1 Z M164.012988,18.1 L164.187988,13.4 L162.287988,13.4 L162.087988,14.625 C162.004655,15.175 161.837988,15.6208333 161.587988,15.9625 C161.337988,16.3041667 160.946322,16.475 160.412988,16.475 L160.412988,16.475 L155.712988,16.475 L155.712988,9.575 L161.612988,9.575 L161.612988,7.975 L155.712988,7.975 L155.712988,1.875 L159.662988,1.875 C160.212988,1.875 160.604655,2.025 160.837988,2.325 C161.071322,2.625 161.221322,3.09166667 161.287988,3.725 L161.287988,3.725 L161.412988,4.95 L163.337988,4.95 L163.262988,0.25 L148.862988,0.25 L148.862988,1.675 L150.012988,1.675 C150.329655,1.675 150.604655,1.7625 150.837988,1.9375 C151.071322,2.1125 151.187988,2.51666667 151.187988,3.15 L151.187988,3.15 L151.187988,15.325 C151.187988,15.8083333 151.083822,16.1541667 150.875488,16.3625 C150.667155,16.5708333 150.387988,16.675 150.037988,16.675 L150.037988,16.675 L148.862988,16.675 L148.862988,18.1 L164.012988,18.1 Z M174.387988,18.1 L177.987988,6.725 L181.837988,18.1 L185.112988,18.1 L188.987988,3.625 C189.221322,2.80833333 189.475488,2.27916667 189.750488,2.0375 C190.025488,1.79583333 190.404655,1.675 190.887988,1.675 L190.887988,1.675 L191.362988,1.675 L191.362988,0.25 L184.662988,0.25 L184.662988,1.675 L185.237988,1.675 C185.787988,1.675 186.183822,1.7625 186.425488,1.9375 C186.667155,2.1125 186.787988,2.41666667 186.787988,2.85 C186.787988,3.03333333 186.754655,3.29583333 186.687988,3.6375 C186.621322,3.97916667 186.546322,4.28333333 186.462988,4.55 L186.462988,4.55 L185.362988,9.025 C185.179655,9.75833333 184.987988,10.55 184.787988,11.4 C184.587988,12.25 184.437988,12.9583333 184.337988,13.525 C184.237988,13.0416667 184.087988,12.4375 183.887988,11.7125 C183.687988,10.9875 183.454655,10.2333333 183.187988,9.45 L183.187988,9.45 L180.112988,0.425 L177.887988,0.425 L174.612988,10.475 C174.429655,11.025 174.275488,11.5333333 174.150488,12 C174.025488,12.4666667 173.904655,12.95 173.787988,13.45 C173.721322,12.95 173.608822,12.3666667 173.450488,11.7 C173.292155,11.0333333 173.129655,10.4166667 172.962988,9.85 L172.962988,9.85 L171.437988,4.4 C171.371322,4.16666667 171.308822,3.8875 171.250488,3.5625 C171.192155,3.2375 171.162988,3.00833333 171.162988,2.875 C171.162988,2.075 171.662988,1.675 172.662988,1.675 L172.662988,1.675 L173.237988,1.675 L173.237988,0.25 L164.312988,0.25 L164.312988,1.675 L164.637988,1.675 C165.121322,1.675 165.496322,1.7625 165.762988,1.9375 C166.029655,2.1125 166.246322,2.46666667 166.412988,3 L166.412988,3 L170.987988,18.1 L174.387988,18.1 Z M198.137988,18.35 C199.587988,18.35 200.837988,18.1166667 201.887988,17.65 C202.937988,17.1833333 203.750488,16.5333333 204.325488,15.7 C204.900488,14.8666667 205.187988,13.9083333 205.187988,12.825 C205.187988,12.025 205.037988,11.3041667 204.737988,10.6625 C204.437988,10.0208333 203.933822,9.42916667 203.225488,8.8875 C202.517155,8.34583333 201.562988,7.83333333 200.362988,7.35 C199.179655,6.86666667 198.279655,6.425 197.662988,6.025 C197.046322,5.625 196.629655,5.2375 196.412988,4.8625 C196.196322,4.4875 196.087988,4.10833333 196.087988,3.725 C196.087988,3.00833333 196.312988,2.47916667 196.762988,2.1375 C197.212988,1.79583333 197.762988,1.625 198.412988,1.625 C199.012988,1.625 199.512988,1.81666667 199.912988,2.2 C200.312988,2.58333333 200.612988,3.05 200.812988,3.6 C201.012988,4.15 201.112988,4.68333333 201.112988,5.2 C202.312988,5.2 203.175488,4.99166667 203.700488,4.575 C204.225488,4.15833333 204.487988,3.64166667 204.487988,3.025 C204.487988,2.50833333 204.292155,2.02083333 203.900488,1.5625 C203.508822,1.10416667 202.904655,0.729166667 202.087988,0.4375 C201.271322,0.145833333 200.212988,-3.55271368e-15 198.912988,-3.55271368e-15 C197.679655,-3.55271368e-15 196.579655,0.208333333 195.612988,0.625 C194.646322,1.04166667 193.879655,1.62916667 193.312988,2.3875 C192.746322,3.14583333 192.462988,4.05 192.462988,5.1 C192.462988,5.86666667 192.604655,6.57916667 192.887988,7.2375 C193.171322,7.89583333 193.662988,8.50416667 194.362988,9.0625 C195.062988,9.62083333 196.021322,10.15 197.237988,10.65 C198.604655,11.2 199.662988,11.7291667 200.412988,12.2375 C201.162988,12.7458333 201.537988,13.4083333 201.537988,14.225 C201.537988,14.8916667 201.283822,15.4791667 200.775488,15.9875 C200.267155,16.4958333 199.546322,16.75 198.612988,16.75 C197.996322,16.75 197.417155,16.5958333 196.875488,16.2875 C196.333822,15.9791667 195.892155,15.4958333 195.550488,14.8375 C195.208822,14.1791667 195.037988,13.325 195.037988,12.275 C194.521322,12.275 194.025488,12.3541667 193.550488,12.5125 C193.075488,12.6708333 192.687988,12.9375 192.387988,13.3125 C192.087988,13.6875 191.937988,14.2083333 191.937988,14.875 C191.937988,15.225 192.029655,15.6041667 192.212988,16.0125 C192.396322,16.4208333 192.717155,16.8 193.175488,17.15 C193.633822,17.5 194.262988,17.7875 195.062988,18.0125 C195.862988,18.2375 196.887988,18.35 198.137988,18.35 Z" id="NEWS" fill="#2E76F6"></path>
                        <path d="M8.94775391,18.1 C12.7197266,18.1 15.1611328,16.0614258 15.1611328,12.9730469 C15.1611328,10.6415039 13.1713867,8.84707031 10.7910156,8.78603516 L10.7910156,8.68837891 C12.8295898,8.43203125 14.3676758,6.90615234 14.3676758,4.87978516 C14.3676758,2.13320312 12.2558594,0.485253906 8.65478516,0.485253906 L0,0.485253906 L0,18.1 L8.94775391,18.1 Z M7.17773438,7.54091797 L5.17578125,7.54091797 L5.17578125,4.0375 L7.25097656,4.0375 C8.55712891,4.0375 9.33837891,4.69667969 9.33837891,5.78310547 C9.33837891,6.84511719 8.50830078,7.54091797 7.17773438,7.54091797 Z M7.38525391,14.5477539 L5.17578125,14.5477539 L5.17578125,10.5072266 L7.421875,10.5072266 C8.97216797,10.5072266 9.89990234,11.2396484 9.89990234,12.4969727 C9.89990234,13.8275391 8.984375,14.5477539 7.38525391,14.5477539 Z M28.9550781,18.1 L28.9550781,13.9862305 L22.0458984,13.9862305 L22.0458984,0.485253906 L16.8701172,0.485253906 L16.8701172,18.1 L28.9550781,18.1 Z M38.6230469,18.4051758 C44.0673828,18.4051758 47.4975586,14.9261719 47.4975586,9.29873047 C47.4975586,3.67128906 44.0673828,0.180078125 38.6230469,0.180078125 C33.1787109,0.180078125 29.7485352,3.67128906 29.7485352,9.29873047 C29.7485352,14.9261719 33.1665039,18.4051758 38.6230469,18.4051758 Z M38.6230469,14.2791992 C36.4501953,14.2791992 35.0219727,12.3382812 35.0219727,9.29873047 C35.0219727,6.24697266 36.4624023,4.30605469 38.6230469,4.30605469 C40.7836914,4.30605469 42.2241211,6.24697266 42.2241211,9.29873047 C42.2241211,12.3382812 40.7958984,14.2791992 38.6230469,14.2791992 Z M57.824707,18.4051758 C62.5732422,18.4051758 66.003418,15.3900391 66.027832,10.9955078 L61.0717773,10.9955078 C60.9130859,13.034082 59.6191406,14.3402344 57.8369141,14.3402344 C55.6884766,14.3402344 54.3579102,12.4603516 54.3579102,9.27431641 C54.3579102,6.12490234 55.7006836,4.24501953 57.824707,4.24501953 C59.6191406,4.24501953 60.925293,5.57558594 61.0473633,7.57753906 L66.003418,7.57753906 C65.9912109,3.20742187 62.4755859,0.180078125 57.824707,0.180078125 C52.4414062,0.180078125 49.0844727,3.47597656 49.0844727,9.28652344 C49.0844727,15.0970703 52.4291992,18.4051758 57.824707,18.4051758 Z M73.1567383,18.1 L73.1567383,13.4857422 L74.5361328,11.6302734 L78.3813477,18.1 L84.3994141,18.1 L78.3325195,8.30996094 L84.1308594,0.485253906 L78.6987305,0.485253906 L73.2543945,7.95595703 L73.1567383,7.95595703 L73.1567383,0.485253906 L67.980957,0.485253906 L67.980957,18.1 L73.1567383,18.1 Z M92.4804688,18.4051758 C97.3388672,18.4051758 100.170898,16.0980469 100.170898,12.4725586 C100.170898,9.61611328 98.3886719,8.06582031 94.6044922,7.38222656 L92.8344727,7.06484375 C91.0766602,6.74746094 90.3198242,6.36904297 90.3198242,5.57558594 C90.3198242,4.78212891 91.0522461,4.14736328 92.4926758,4.14736328 C93.9086914,4.14736328 95.0073242,4.76992187 95.0439453,5.84414062 L99.8046875,5.84414062 C99.7802734,2.36513672 97.1435547,0.180078125 92.4316406,0.180078125 C88.2446289,0.180078125 85.1928711,2.41396484 85.1928711,5.95400391 C85.1928711,8.68837891 87.109375,10.4583984 90.612793,11.080957 L92.3828125,11.3983398 C94.3603516,11.7523437 95.0439453,12.1063477 95.0439453,12.9364258 C95.0439453,13.803125 94.0917969,14.4378906 92.5415039,14.4378906 C91.0766602,14.4378906 89.84375,13.8275391 89.6484375,12.7655273 L84.8876953,12.7655273 C84.8999023,16.3666016 87.9150391,18.4051758 92.4804688,18.4051758 Z M111.462402,18.1 L111.462402,12.5213867 L117.480469,0.485253906 L112.072754,0.485253906 L108.984375,7.62636719 L108.886719,7.62636719 L105.79834,0.485253906 L100.268555,0.485253906 L106.286621,12.5213867 L106.286621,18.1 L111.462402,18.1 Z" id="BLOCKSY" fill-opacity="0.904173951" fill="#1D2B35"></path>
                    </g>
                </g>
            </g>
        </g>
    </g>
</svg>