<?xml version="1.0" encoding="UTF-8"?>
<svg width="80px" height="80px" viewBox="0 0 80 80" version="1.1" xmlns="http://www.w3.org/2000/svg" xmlns:xlink="http://www.w3.org/1999/xlink">
    <!-- Generator: Sketch 63.1 (92452) - https://sketch.com -->
    <title>icon</title>
    <desc>Created with Sketch.</desc>
    <g id="Contact" stroke="none" stroke-width="1" fill="none" fill-rule="evenodd">
        <g id="Contact-page" transform="translate(-1250.000000, -897.000000)">
            <g id="entry-content" transform="translate(205.000000, 670.000000)">
                <g id="contacts">
                    <g id="item-copy-4" transform="translate(880.000000, 177.000000)">
                        <g id="icon" transform="translate(165.000000, 50.000000)">
                            <circle id="Oval" fill="#2872FA" cx="40" cy="40" r="40"></circle>
                            <path d="M43.6428571,31.7142857 C46.4971278,32.2711666 48.7288334,34.5028722 49.2857143,37.3571429 M43.6428571,26 C49.6136404,26.6633061 54.3291793,31.3729135 55,37.3428571 M53.5714286,48.7428571 L53.5714286,53.0285714 C53.574694,53.8330644 53.23864,54.6016548 52.6458255,55.1455213 C52.0530111,55.6893877 51.258377,55.9581259 50.4571429,55.8857143 C46.0611912,55.4080583 41.8385702,53.9059208 38.1285714,51.5 C34.6768973,49.3066626 31.7504802,46.3802455 29.5571429,42.9285714 C27.1428258,39.20172 25.6403471,34.9585637 25.1714286,30.5428571 C25.0992474,29.7441033 25.3661029,28.9517892 25.9068083,28.3594587 C26.4475136,27.7671281 27.2122775,27.4293267 28.0142857,27.428431 L32.3,27.428431 C33.7340915,27.4144569 34.9564298,28.4656678 35.1571429,29.8857143 C35.3380329,31.2572378 35.6734992,32.6038955 36.1571429,33.9 C36.5496214,34.9441072 36.298593,36.1211518 35.5142857,36.9142857 L33.7,38.7285714 C35.7336507,42.3050655 38.6949345,45.2663493 42.2714286,47.3 L44.0857143,45.4857143 C44.8788482,44.701407 46.0558928,44.4503786 47.1,44.8428571 C48.3961045,45.3265008 49.7427622,45.6619671 51.1142857,45.8428571 C52.5508038,46.0455147 53.6074143,47.2925608 53.5714286,48.7428571 L53.5714286,48.7428571 Z" id="Shape" stroke="#FFFFFF" stroke-width="2" stroke-linecap="round" stroke-linejoin="round"></path>
                        </g>
                    </g>
                </g>
            </g>
        </g>
    </g>
</svg>