<?xml version="1.0" standalone="no"?>
<!DOCTYPE svg PUBLIC "-//W3C//DTD SVG 20010904//EN"
 "http://www.w3.org/TR/2001/REC-SVG-20010904/DTD/svg10.dtd">
<svg version="1.0" xmlns="http://www.w3.org/2000/svg"
 width="2214.000000pt" height="2344.000000pt" viewBox="0 0 2214.000000 2344.000000"
 preserveAspectRatio="xMidYMid meet">

<g transform="translate(0.000000,2344.000000) scale(0.100000,-0.100000)"
fill="#fff" stroke="none">
<path d="M10904 23415 c-39 -8 -346 -143 -835 -368 -426 -195 -1258 -576
-1849 -847 -591 -271 -1089 -503 -1107 -516 -62 -47 -78 -80 -81 -174 -4 -82
-3 -87 30 -135 28 -43 46 -56 128 -96 83 -41 1279 -592 2755 -1269 343 -158
583 -268 1675 -770 613 -282 1201 -552 1305 -600 105 -48 663 -304 1240 -570
578 -266 1136 -522 1240 -570 105 -48 746 -343 1425 -655 679 -312 1321 -607
1425 -655 105 -48 775 -356 1490 -685 715 -329 1381 -635 1480 -680 99 -46
278 -128 399 -184 l218 -100 60 24 c108 44 195 123 224 204 11 29 13 373 14
1708 0 1878 7 1706 -77 1838 -25 39 -80 104 -122 145 -74 72 -84 78 -286 171
-630 290 -5862 2693 -6410 2944 -197 90 -243 112 -2458 1129 -1106 508 -1535
701 -1585 711 -83 18 -217 18 -298 0z"/>
<path d="M4385 20436 c-87 -20 -94 -23 -1100 -493 -1153 -539 -2691 -1258
-2852 -1333 -68 -32 -140 -69 -160 -83 -96 -67 -231 -240 -258 -331 -13 -44
-15 -840 -15 -6466 0 -5721 2 -6422 15 -6468 22 -73 102 -187 192 -273 78 -74
79 -74 398 -221 310 -141 1051 -482 2530 -1163 l710 -327 51 16 c101 32 219
135 242 214 9 30 12 1530 12 6467 0 5138 3 6426 13 6422 92 -38 501 -223 4007
-1807 1427 -645 2633 -1187 2680 -1203 76 -27 97 -31 200 -31 78 0 135 6 177
17 34 10 184 74 335 143 350 161 869 400 1518 699 283 131 625 288 760 350
1499 690 1378 631 1415 685 72 104 46 260 -52 322 -46 28 21 -4 -863 405 -399
185 -844 391 -990 458 -325 150 -1198 554 -1730 800 -599 277 -1943 899 -2535
1172 -220 102 -668 309 -995 460 -327 152 -714 331 -860 398 -146 67 -564 261
-930 430 -366 169 -854 395 -1085 502 -231 108 -454 206 -495 220 -93 31 -245
40 -335 19z"/>
<path d="M18019 14201 c-88 -35 -196 -127 -219 -187 -6 -16 -10 -1042 -10
-2747 0 -1497 -3 -2806 -7 -2909 l-6 -187 -86 -40 c-47 -22 -174 -81 -281
-131 -107 -51 -539 -252 -960 -447 -421 -196 -1017 -472 -1325 -615 -308 -144
-621 -289 -695 -323 -74 -34 -796 -369 -1605 -744 -1869 -867 -1754 -815
-1763 -807 -4 4 -9 1356 -12 3004 l-5 2997 -37 65 c-67 118 -183 238 -274 284
-27 13 -114 54 -194 91 -132 61 -477 221 -1605 742 -220 102 -697 323 -1060
491 -363 167 -707 327 -765 353 -58 27 -114 49 -125 49 -67 0 -230 -116 -273
-195 -16 -28 -17 -415 -20 -5373 -2 -5213 -2 -5344 17 -5396 27 -76 92 -169
181 -256 82 -81 58 -68 595 -318 229 -106 1921 -894 2175 -1012 1024 -477
1170 -543 1238 -561 157 -40 309 -19 501 70 58 27 482 222 941 434 459 211
1182 544 1605 740 424 195 1265 583 1870 862 2076 957 4086 1884 5249 2420
l799 369 77 75 c89 88 154 180 181 257 18 52 19 149 19 3452 0 2858 -2 3406
-14 3445 -23 77 -86 168 -181 262 -81 81 -100 94 -190 134 -96 42 -315 142
-1420 646 -280 128 -690 315 -910 415 -220 100 -611 279 -869 396 -257 118
-473 214 -480 214 -6 -1 -32 -9 -57 -19z"/>
</g>
</svg>
