<svg xmlns="http://www.w3.org/2000/svg" version="1.1" xmlns:xlink="http://www.w3.org/1999/xlink" xmlns:svgjs="http://svgjs.com/svgjs" width="1440" height="560" preserveAspectRatio="none" viewBox="0 0 1440 560"><g mask="url(&quot;#SvgjsMask1000&quot;)" fill="none"><rect width="1440" height="560" x="0" y="0" fill="#0e2a47"></rect><path d="M887.94 592.99C1008.66 577.79 1054.39 318.67 1279.02 303.32 1503.65 287.97 1564.8 149.4 1670.1 146.52" stroke="rgba(51,121,194,0.58)" stroke-width="2"></path><path d="M166.46 668.87C286.35 666.22 390.07 502.38 616.27 502.24 842.47 502.1 841.18 572.24 1066.08 572.24 1290.99 572.24 1402.08 502.45 1515.89 502.24" stroke="rgba(51,121,194,0.58)" stroke-width="2"></path><path d="M518.65 585.08C656.21 584.53 774.93 480.03 1057.97 475.88 1341 471.73 1450.27 245.72 1597.28 240.68" stroke="rgba(51,121,194,0.58)" stroke-width="2"></path><path d="M188.48 635.18C362.67 631.29 498.49 397.37 841.69 392.17 1184.89 386.97 1325.57 214.59 1494.9 212.97" stroke="rgba(51,121,194,0.58)" stroke-width="2"></path><path d="M473.87 666.56C593.41 649.95 545.25 380.54 855.5 370.93 1165.75 361.32 1422.43 187.44 1618.75 186.13" stroke="rgba(51,121,194,0.58)" stroke-width="2"></path></g><defs><mask id="SvgjsMask1000"><rect width="1440" height="560" fill="#ffffff"></rect></mask></defs></svg>