<svg xmlns="http://www.w3.org/2000/svg" version="1.1" xmlns:xlink="http://www.w3.org/1999/xlink" xmlns:svgjs="http://svgjs.com/svgjs" width="1000" height="560" preserveAspectRatio="none" viewBox="0 0 1000 560"><g mask="url(&quot;#SvgjsMask1195&quot;)" fill="none"><rect width="1000" height="560" x="0" y="0" fill="url(#SvgjsLinearGradient1196)"></rect><path d="M984.13 484.16L984.13 485.45L994.18 485.45L994.18 484.16zM991.89 484.8 a2.29 2.29 0 1 0 4.58 0 a2.29 2.29 0 1 0 -4.58 0zM982.5 493.66L982 494.86L985.65 496.37L986.15 495.17zM983.61 495.77 a2.29 2.29 0 1 0 4.58 0 a2.29 2.29 0 1 0 -4.58 0zM977.35 501.82L976.44 502.73L982.92 509.22L983.83 508.3zM981.09 508.76 a2.29 2.29 0 1 0 4.58 0 a2.29 2.29 0 1 0 -4.58 0zM969.47 507.39L968.28 507.88L971.97 516.79L973.16 516.29zM970.27 516.54 a2.29 2.29 0 1 0 4.58 0 a2.29 2.29 0 1 0 -4.58 0zM960.07 509.51L958.77 509.51L958.77 517.9L960.07 517.9zM957.13 517.9 a2.29 2.29 0 1 0 4.58 0 a2.29 2.29 0 1 0 -4.58 0zM950.56 507.88L949.36 507.39L945.45 516.84L946.65 517.33zM943.76 517.09 a2.29 2.29 0 1 0 4.58 0 a2.29 2.29 0 1 0 -4.58 0zM942.4 502.73L941.49 501.82L936.3 507.01L937.21 507.92zM934.47 507.47 a2.29 2.29 0 1 0 4.58 0 a2.29 2.29 0 1 0 -4.58 0zM936.84 494.86L936.34 493.66L928.5 496.91L928.99 498.11zM926.45 497.51 a2.29 2.29 0 1 0 4.58 0 a2.29 2.29 0 1 0 -4.58 0zM934.71 485.45L934.71 484.16L928.1 484.16L928.1 485.45zM925.81 484.8 a2.29 2.29 0 1 0 4.58 0 a2.29 2.29 0 1 0 -4.58 0zM936.34 475.94L936.84 474.75L931.01 472.33L930.51 473.53zM928.47 472.93 a2.29 2.29 0 1 0 4.58 0 a2.29 2.29 0 1 0 -4.58 0zM941.49 467.79L942.4 466.87L935.69 460.15L934.77 461.07zM932.94 460.61 a2.29 2.29 0 1 0 4.58 0 a2.29 2.29 0 1 0 -4.58 0zM949.36 462.22L950.56 461.73L945.94 450.58L944.75 451.08zM943.06 450.83 a2.29 2.29 0 1 0 4.58 0 a2.29 2.29 0 1 0 -4.58 0zM958.77 460.09L960.07 460.09L960.07 450.87L958.77 450.87zM957.13 450.87 a2.29 2.29 0 1 0 4.58 0 a2.29 2.29 0 1 0 -4.58 0zM968.28 461.73L969.47 462.22L973.44 452.64L972.25 452.14zM970.55 452.39 a2.29 2.29 0 1 0 4.58 0 a2.29 2.29 0 1 0 -4.58 0zM976.44 466.87L977.35 467.79L985.33 459.8L984.42 458.89zM982.59 459.35 a2.29 2.29 0 1 0 4.58 0 a2.29 2.29 0 1 0 -4.58 0zM982 474.75L982.5 475.94L991.51 472.21L991.02 471.01zM988.98 471.61 a2.29 2.29 0 1 0 4.58 0 a2.29 2.29 0 1 0 -4.58 0zM934.7 484.8 a24.72 24.72 0 1 0 49.44 0 a24.72 24.72 0 1 0 -49.44 0z" fill="rgba(24, 87, 158, 0.78)"></path><path d="M982.69 493.13 A23.72 23.72 0 0 1 940.6 500.84M940.6 500.84 A49.44 49.44 0 0 0 982.69 493.13" fill="rgba(19, 70, 126, 0.78)" fill-rule="nonzero"></path><path d="M964.54 496 a4.94 4.94 0 1 0 9.88 0 a4.94 4.94 0 1 0 -9.88 0zM948.66 497.84 a4.94 4.94 0 1 0 9.88 0 a4.94 4.94 0 1 0 -9.88 0zM941.11 477.9 a4.94 4.94 0 1 0 9.88 0 a4.94 4.94 0 1 0 -9.88 0zM977.32 471.49 a1.24 1.24 0 1 0 2.48 0 a1.24 1.24 0 1 0 -2.48 0zM948.61 467.4 a1.24 1.24 0 1 0 2.48 0 a1.24 1.24 0 1 0 -2.48 0zM958.62 465.83 a4.94 4.94 0 1 0 9.88 0 a4.94 4.94 0 1 0 -9.88 0zM958.94 507.26 a1.73 1.73 0 1 0 3.46 0 a1.73 1.73 0 1 0 -3.46 0zM973.36 486.06 a0.99 0.99 0 1 0 1.98 0 a0.99 0.99 0 1 0 -1.98 0zM944.27 490.67 a0.99 0.99 0 1 0 1.98 0 a0.99 0.99 0 1 0 -1.98 0zM978.31 479.29 a1.73 1.73 0 1 0 3.46 0 a1.73 1.73 0 1 0 -3.46 0z" fill="rgba(19, 70, 126, 0.78)" fill-rule="nonzero"></path><path d="M651 453.21L651 455.8L661.84 455.8L661.84 453.21zM657.26 454.51 a4.58 4.58 0 1 0 9.16 0 a4.58 4.58 0 1 0 -9.16 0zM647.73 472.23L646.74 474.62L667.32 483.14L668.31 480.75zM663.23 481.94 a4.58 4.58 0 1 0 9.16 0 a4.58 4.58 0 1 0 -9.16 0zM637.44 488.54L635.61 490.37L645.08 499.84L646.91 498.01zM641.41 498.92 a4.58 4.58 0 1 0 9.16 0 a4.58 4.58 0 1 0 -9.16 0zM621.69 499.67L619.3 500.66L622.52 508.44L624.91 507.45zM619.13 507.95 a4.58 4.58 0 1 0 9.16 0 a4.58 4.58 0 1 0 -9.16 0zM602.87 503.93L600.28 503.93L600.28 522.04L602.87 522.04zM597 522.04 a4.58 4.58 0 1 0 9.16 0 a4.58 4.58 0 1 0 -9.16 0zM583.86 500.66L581.47 499.67L578.83 506.04L581.22 507.03zM575.45 506.53 a4.58 4.58 0 1 0 9.16 0 a4.58 4.58 0 1 0 -9.16 0zM567.55 490.37L565.72 488.54L552.04 502.22L553.87 504.05zM548.37 503.13 a4.58 4.58 0 1 0 9.16 0 a4.58 4.58 0 1 0 -9.16 0zM556.41 474.62L555.42 472.23L541.61 477.95L542.6 480.34zM537.52 479.14 a4.58 4.58 0 1 0 9.16 0 a4.58 4.58 0 1 0 -9.16 0zM552.15 455.8L552.15 453.21L544.33 453.21L544.33 455.8zM539.75 454.51 a4.58 4.58 0 1 0 9.16 0 a4.58 4.58 0 1 0 -9.16 0zM555.42 436.79L556.41 434.4L544.31 429.39L543.32 431.78zM539.23 430.58 a4.58 4.58 0 1 0 9.16 0 a4.58 4.58 0 1 0 -9.16 0zM565.72 420.48L567.55 418.65L562.14 413.24L560.31 415.07zM556.65 414.16 a4.58 4.58 0 1 0 9.16 0 a4.58 4.58 0 1 0 -9.16 0zM581.47 409.34L583.86 408.35L577.1 392.03L574.71 393.02zM571.32 392.52 a4.58 4.58 0 1 0 9.16 0 a4.58 4.58 0 1 0 -9.16 0zM600.28 405.09L602.87 405.09L602.87 394.83L600.28 394.83zM597 394.83 a4.58 4.58 0 1 0 9.16 0 a4.58 4.58 0 1 0 -9.16 0zM619.3 408.35L621.69 409.34L625.35 400.51L622.95 399.52zM619.57 400.02 a4.58 4.58 0 1 0 9.16 0 a4.58 4.58 0 1 0 -9.16 0zM635.61 418.65L637.44 420.48L647.64 410.27L645.81 408.44zM642.15 409.36 a4.58 4.58 0 1 0 9.16 0 a4.58 4.58 0 1 0 -9.16 0zM646.74 434.4L647.73 436.79L667.2 428.73L666.21 426.34zM662.12 427.53 a4.58 4.58 0 1 0 9.16 0 a4.58 4.58 0 1 0 -9.16 0zM552.14 454.51 a49.44 49.44 0 1 0 98.88 0 a49.44 49.44 0 1 0 -98.88 0z" fill="rgba(24, 87, 158, 0.78)"></path><path d="M604.11 405.13 A48.44 48.44 0 0 1 643.13 481.3M643.13 481.3 A98.88 98.88 0 0 0 604.11 405.13" fill="rgba(19, 70, 126, 0.78)" fill-rule="nonzero"></path><path d="M561.13 465.27 a9.89 9.89 0 1 0 19.78 0 a9.89 9.89 0 1 0 -19.78 0zM564.46 438.95 a6.43 6.43 0 1 0 12.86 0 a6.43 6.43 0 1 0 -12.86 0zM600.73 461.42 a9.89 9.89 0 1 0 19.78 0 a9.89 9.89 0 1 0 -19.78 0zM636.35 461.72 a6.92 6.92 0 1 0 13.84 0 a6.92 6.92 0 1 0 -13.84 0zM616.39 430.45 a9.89 9.89 0 1 0 19.78 0 a9.89 9.89 0 1 0 -19.78 0zM579.27 489.93 a9.89 9.89 0 1 0 19.78 0 a9.89 9.89 0 1 0 -19.78 0zM594.91 413.24 a7.91 7.91 0 1 0 15.82 0 a7.91 7.91 0 1 0 -15.82 0zM618.14 490.48 a6.43 6.43 0 1 0 12.86 0 a6.43 6.43 0 1 0 -12.86 0zM585.05 448.02 a1.98 1.98 0 1 0 3.96 0 a1.98 1.98 0 1 0 -3.96 0zM578.84 414.89 a2.97 2.97 0 1 0 5.94 0 a2.97 2.97 0 1 0 -5.94 0z" fill="rgba(19, 70, 126, 0.78)" fill-rule="nonzero"></path><path d="M378.02 412.78L378.02 415.37L394.72 415.37L394.72 412.78zM390.14 414.07 a4.58 4.58 0 1 0 9.16 0 a4.58 4.58 0 1 0 -9.16 0zM374.76 431.79L373.77 434.18L395.49 443.18L396.48 440.79zM391.4 441.98 a4.58 4.58 0 1 0 9.16 0 a4.58 4.58 0 1 0 -9.16 0zM364.46 448.1L362.63 449.94L372.96 460.26L374.79 458.43zM369.29 459.34 a4.58 4.58 0 1 0 9.16 0 a4.58 4.58 0 1 0 -9.16 0zM348.71 459.24L346.32 460.23L355.38 482.11L357.77 481.12zM352 481.61 a4.58 4.58 0 1 0 9.16 0 a4.58 4.58 0 1 0 -9.16 0zM329.9 463.5L327.31 463.5L327.31 473.11L329.9 473.11zM324.02 473.11 a4.58 4.58 0 1 0 9.16 0 a4.58 4.58 0 1 0 -9.16 0zM310.88 460.23L308.49 459.24L300.06 479.6L302.45 480.59zM296.67 480.1 a4.58 4.58 0 1 0 9.16 0 a4.58 4.58 0 1 0 -9.16 0zM294.57 449.94L292.74 448.1L284.23 456.61L286.06 458.44zM280.57 457.53 a4.58 4.58 0 1 0 9.16 0 a4.58 4.58 0 1 0 -9.16 0zM283.44 434.18L282.44 431.79L269.5 437.15L270.49 439.54zM265.42 438.35 a4.58 4.58 0 1 0 9.16 0 a4.58 4.58 0 1 0 -9.16 0zM279.18 415.37L279.18 412.78L259.67 412.78L259.67 415.37zM255.09 414.07 a4.58 4.58 0 1 0 9.16 0 a4.58 4.58 0 1 0 -9.16 0zM282.44 396.35L283.44 393.96L264.68 386.2L263.69 388.59zM259.61 387.39 a4.58 4.58 0 1 0 9.16 0 a4.58 4.58 0 1 0 -9.16 0zM292.74 380.04L294.57 378.21L277.31 360.95L275.48 362.78zM271.81 361.86 a4.58 4.58 0 1 0 9.16 0 a4.58 4.58 0 1 0 -9.16 0zM308.49 368.91L310.88 367.92L304.24 351.87L301.84 352.86zM298.46 352.36 a4.58 4.58 0 1 0 9.16 0 a4.58 4.58 0 1 0 -9.16 0zM327.31 364.65L329.9 364.65L329.9 345.43L327.31 345.43zM324.02 345.43 a4.58 4.58 0 1 0 9.16 0 a4.58 4.58 0 1 0 -9.16 0zM346.32 367.92L348.71 368.91L353.58 357.16L351.19 356.16zM347.8 356.66 a4.58 4.58 0 1 0 9.16 0 a4.58 4.58 0 1 0 -9.16 0zM362.63 378.21L364.46 380.04L374.74 369.77L372.91 367.94zM369.24 368.85 a4.58 4.58 0 1 0 9.16 0 a4.58 4.58 0 1 0 -9.16 0zM373.77 393.96L374.76 396.35L380.85 393.83L379.86 391.44zM375.78 392.63 a4.58 4.58 0 1 0 9.16 0 a4.58 4.58 0 1 0 -9.16 0zM279.16 414.07 a49.44 49.44 0 1 0 98.88 0 a49.44 49.44 0 1 0 -98.88 0z" fill="rgba(24, 87, 158, 0.78)"></path><path d="M288.97 443.63 A48.44 48.44 0 0 1 322.72 364.98M322.72 364.98 A98.88 98.88 0 0 0 288.97 443.63" fill="rgba(19, 70, 126, 0.78)" fill-rule="nonzero"></path><path d="M355.54 412.41 a9.89 9.89 0 1 0 19.78 0 a9.89 9.89 0 1 0 -19.78 0zM279.37 412.07 a7.42 7.42 0 1 0 14.84 0 a7.42 7.42 0 1 0 -14.84 0zM322.66 452.02 a9.89 9.89 0 1 0 19.78 0 a9.89 9.89 0 1 0 -19.78 0zM310.67 403.99 a9.89 9.89 0 1 0 19.78 0 a9.89 9.89 0 1 0 -19.78 0zM301.55 383.15 a4.94 4.94 0 1 0 9.88 0 a4.94 4.94 0 1 0 -9.88 0zM322.69 377.69 a8.4 8.4 0 1 0 16.8 0 a8.4 8.4 0 1 0 -16.8 0zM345.71 390.2 a4.45 4.45 0 1 0 8.9 0 a4.45 4.45 0 1 0 -8.9 0zM340.75 420.67 a2.97 2.97 0 1 0 5.94 0 a2.97 2.97 0 1 0 -5.94 0zM307.44 443.54 a3.46 3.46 0 1 0 6.92 0 a3.46 3.46 0 1 0 -6.92 0zM347.66 437.39 a3.46 3.46 0 1 0 6.92 0 a3.46 3.46 0 1 0 -6.92 0z" fill="rgba(19, 70, 126, 0.78)" fill-rule="nonzero"></path><path d="M218.65 283.12L218.65 285.38L235.98 285.38L235.98 283.12zM231.97 284.25 a4.01 4.01 0 1 0 8.02 0 a4.01 4.01 0 1 0 -8.02 0zM215.79 299.75L214.92 301.84L227.46 307.04L228.33 304.94zM223.88 305.99 a4.01 4.01 0 1 0 8.02 0 a4.01 4.01 0 1 0 -8.02 0zM206.78 314.03L205.18 315.63L220.19 330.64L221.79 329.04zM216.98 329.84 a4.01 4.01 0 1 0 8.02 0 a4.01 4.01 0 1 0 -8.02 0zM193 323.77L190.9 324.64L195.3 335.25L197.39 334.38zM192.34 334.82 a4.01 4.01 0 1 0 8.02 0 a4.01 4.01 0 1 0 -8.02 0zM176.53 327.49L174.27 327.49L174.27 343.34L176.53 343.34zM171.39 343.34 a4.01 4.01 0 1 0 8.02 0 a4.01 4.01 0 1 0 -8.02 0zM159.9 324.64L157.81 323.77L152.18 337.35L154.27 338.22zM149.22 337.78 a4.01 4.01 0 1 0 8.02 0 a4.01 4.01 0 1 0 -8.02 0zM145.62 315.63L144.02 314.03L130.49 327.55L132.1 329.16zM127.29 328.35 a4.01 4.01 0 1 0 8.02 0 a4.01 4.01 0 1 0 -8.02 0zM135.88 301.84L135.01 299.75L129.72 301.94L130.59 304.04zM126.14 302.99 a4.01 4.01 0 1 0 8.02 0 a4.01 4.01 0 1 0 -8.02 0zM132.16 285.38L132.16 283.12L120.2 283.12L120.2 285.38zM116.19 284.25 a4.01 4.01 0 1 0 8.02 0 a4.01 4.01 0 1 0 -8.02 0zM135.01 268.75L135.88 266.65L130.27 264.33L129.41 266.42zM125.83 265.38 a4.01 4.01 0 1 0 8.02 0 a4.01 4.01 0 1 0 -8.02 0zM144.02 254.47L145.62 252.87L141.51 248.76L139.91 250.36zM136.7 249.56 a4.01 4.01 0 1 0 8.02 0 a4.01 4.01 0 1 0 -8.02 0zM157.81 244.73L159.9 243.86L156.73 236.2L154.63 237.07zM151.67 236.64 a4.01 4.01 0 1 0 8.02 0 a4.01 4.01 0 1 0 -8.02 0zM174.27 241L176.53 241L176.53 228.87L174.27 228.87zM171.39 228.87 a4.01 4.01 0 1 0 8.02 0 a4.01 4.01 0 1 0 -8.02 0zM190.9 243.86L193 244.73L195.52 238.64L193.43 237.77zM190.46 238.21 a4.01 4.01 0 1 0 8.02 0 a4.01 4.01 0 1 0 -8.02 0zM205.18 252.87L206.78 254.47L216.98 244.27L215.38 242.67zM212.17 243.47 a4.01 4.01 0 1 0 8.02 0 a4.01 4.01 0 1 0 -8.02 0zM214.92 266.65L215.79 268.75L233.6 261.37L232.73 259.28zM229.16 260.32 a4.01 4.01 0 1 0 8.02 0 a4.01 4.01 0 1 0 -8.02 0zM132.14 284.25 a43.26 43.26 0 1 0 86.52 0 a43.26 43.26 0 1 0 -86.52 0z" fill="rgba(24, 87, 158, 0.78)"></path><path d="M135.54 301.05 A42.26 42.26 0 0 1 180.69 241.31M180.69 241.31 A86.52 86.52 0 0 0 135.54 301.05" fill="rgba(19, 70, 126, 0.78)" fill-rule="nonzero"></path><path d="M197.1 273.74 a8.65 8.65 0 1 0 17.3 0 a8.65 8.65 0 1 0 -17.3 0zM187.86 261.83 a2.16 2.16 0 1 0 4.32 0 a2.16 2.16 0 1 0 -4.32 0zM150.96 315.81 a6.92 6.92 0 1 0 13.84 0 a6.92 6.92 0 1 0 -13.84 0zM179 309.12 a8.65 8.65 0 1 0 17.3 0 a8.65 8.65 0 1 0 -17.3 0zM160.47 266.6 a8.65 8.65 0 1 0 17.3 0 a8.65 8.65 0 1 0 -17.3 0zM142.96 287.1 a8.65 8.65 0 1 0 17.3 0 a8.65 8.65 0 1 0 -17.3 0zM182.25 278.67 a2.16 2.16 0 1 0 4.32 0 a2.16 2.16 0 1 0 -4.32 0zM196.36 252.13 a1.73 1.73 0 1 0 3.46 0 a1.73 1.73 0 1 0 -3.46 0zM211.39 294.04 a3.03 3.03 0 1 0 6.06 0 a3.03 3.03 0 1 0 -6.06 0zM135.57 268.73 a2.6 2.6 0 1 0 5.2 0 a2.6 2.6 0 1 0 -5.2 0z" fill="rgba(19, 70, 126, 0.78)" fill-rule="nonzero"></path><path d="M217.2 49.11L217.2 50.41L225.49 50.41L225.49 49.11zM223.2 49.76 a2.29 2.29 0 1 0 4.58 0 a2.29 2.29 0 1 0 -4.58 0zM215.57 58.62L215.08 59.82L222.75 63L223.25 61.8zM220.71 62.4 a2.29 2.29 0 1 0 4.58 0 a2.29 2.29 0 1 0 -4.58 0zM210.42 66.78L209.51 67.69L211.83 70.01L212.74 69.1zM210 69.55 a2.29 2.29 0 1 0 4.58 0 a2.29 2.29 0 1 0 -4.58 0zM202.55 72.34L201.35 72.84L205.46 82.76L206.66 82.27zM203.77 82.51 a2.29 2.29 0 1 0 4.58 0 a2.29 2.29 0 1 0 -4.58 0zM193.14 74.47L191.85 74.47L191.85 81.85L193.14 81.85zM190.2 81.85 a2.29 2.29 0 1 0 4.58 0 a2.29 2.29 0 1 0 -4.58 0zM183.63 72.84L182.44 72.34L178.26 82.43L179.45 82.93zM176.57 82.68 a2.29 2.29 0 1 0 4.58 0 a2.29 2.29 0 1 0 -4.58 0zM175.48 67.69L174.56 66.78L168.49 72.84L169.41 73.76zM166.66 73.3 a2.29 2.29 0 1 0 4.58 0 a2.29 2.29 0 1 0 -4.58 0zM169.91 59.82L169.41 58.62L160.48 62.32L160.98 63.52zM158.44 62.92 a2.29 2.29 0 1 0 4.58 0 a2.29 2.29 0 1 0 -4.58 0zM167.78 50.41L167.78 49.11L156.7 49.11L156.7 50.41zM154.41 49.76 a2.29 2.29 0 1 0 4.58 0 a2.29 2.29 0 1 0 -4.58 0zM169.41 40.9L169.91 39.71L164.09 37.3L163.59 38.49zM161.55 37.89 a2.29 2.29 0 1 0 4.58 0 a2.29 2.29 0 1 0 -4.58 0zM174.56 32.75L175.48 31.83L167.67 24.02L166.75 24.94zM164.92 24.48 a2.29 2.29 0 1 0 4.58 0 a2.29 2.29 0 1 0 -4.58 0zM182.44 27.18L183.63 26.68L179.27 16.15L178.08 16.65zM176.38 16.4 a2.29 2.29 0 1 0 4.58 0 a2.29 2.29 0 1 0 -4.58 0zM191.85 25.05L193.14 25.05L193.14 14.35L191.85 14.35zM190.2 14.35 a2.29 2.29 0 1 0 4.58 0 a2.29 2.29 0 1 0 -4.58 0zM201.35 26.68L202.55 27.18L205.36 20.39L204.16 19.89zM202.47 20.14 a2.29 2.29 0 1 0 4.58 0 a2.29 2.29 0 1 0 -4.58 0zM209.51 31.83L210.42 32.75L214.91 28.26L214 27.34zM212.17 27.8 a2.29 2.29 0 1 0 4.58 0 a2.29 2.29 0 1 0 -4.58 0zM215.08 39.71L215.57 40.9L224.26 37.31L223.76 36.11zM221.72 36.71 a2.29 2.29 0 1 0 4.58 0 a2.29 2.29 0 1 0 -4.58 0zM167.77 49.76 a24.72 24.72 0 1 0 49.44 0 a24.72 24.72 0 1 0 -49.44 0z" fill="rgba(24, 87, 158, 0.78)"></path><path d="M211.13 66 A23.72 23.72 0 0 1 169.13 57.83M169.13 57.83 A49.44 49.44 0 0 0 211.13 66" fill="rgba(19, 70, 126, 0.78)" fill-rule="nonzero"></path><path d="M186.95 47.82 a4.94 4.94 0 1 0 9.88 0 a4.94 4.94 0 1 0 -9.88 0zM192.85 67.78 a4.94 4.94 0 1 0 9.88 0 a4.94 4.94 0 1 0 -9.88 0zM178.9 34.11 a4.94 4.94 0 1 0 9.88 0 a4.94 4.94 0 1 0 -9.88 0zM199.14 34.97 a4.94 4.94 0 1 0 9.88 0 a4.94 4.94 0 1 0 -9.88 0zM172.1 45.22 a3.71 3.71 0 1 0 7.42 0 a3.71 3.71 0 1 0 -7.42 0zM206.76 62.69 a2.47 2.47 0 1 0 4.94 0 a2.47 2.47 0 1 0 -4.94 0zM180.87 62.63 a3.96 3.96 0 1 0 7.92 0 a3.96 3.96 0 1 0 -7.92 0zM201.87 49.31 a1.98 1.98 0 1 0 3.96 0 a1.98 1.98 0 1 0 -3.96 0zM168.37 53.91 a1.48 1.48 0 1 0 2.96 0 a1.48 1.48 0 1 0 -2.96 0zM213.21 40.58 a0.99 0.99 0 1 0 1.98 0 a0.99 0.99 0 1 0 -1.98 0z" fill="rgba(19, 70, 126, 0.78)" fill-rule="nonzero"></path><path d="M89.92 163.96L89.92 165.26L97.15 165.26L97.15 163.96zM94.86 164.61 a2.29 2.29 0 1 0 4.58 0 a2.29 2.29 0 1 0 -4.58 0zM88.29 173.47L87.8 174.67L96.1 178.11L96.6 176.91zM94.06 177.51 a2.29 2.29 0 1 0 4.58 0 a2.29 2.29 0 1 0 -4.58 0zM83.14 181.63L82.23 182.54L86.7 187.01L87.61 186.1zM84.87 186.55 a2.29 2.29 0 1 0 4.58 0 a2.29 2.29 0 1 0 -4.58 0zM75.27 187.19L74.07 187.69L77.08 194.96L78.28 194.46zM75.39 194.71 a2.29 2.29 0 1 0 4.58 0 a2.29 2.29 0 1 0 -4.58 0zM65.86 189.32L64.57 189.32L64.57 193L65.86 193zM62.92 193 a2.29 2.29 0 1 0 4.58 0 a2.29 2.29 0 1 0 -4.58 0zM56.35 187.69L55.16 187.19L51.57 195.86L52.76 196.35zM49.88 196.11 a2.29 2.29 0 1 0 4.58 0 a2.29 2.29 0 1 0 -4.58 0zM48.2 182.54L47.28 181.63L39.13 189.78L40.04 190.7zM37.3 190.24 a2.29 2.29 0 1 0 4.58 0 a2.29 2.29 0 1 0 -4.58 0zM42.63 174.67L42.14 173.47L35.94 176.04L36.43 177.23zM33.89 176.64 a2.29 2.29 0 1 0 4.58 0 a2.29 2.29 0 1 0 -4.58 0zM40.5 165.26L40.5 163.96L37.1 163.96L37.1 165.26zM34.81 164.61 a2.29 2.29 0 1 0 4.58 0 a2.29 2.29 0 1 0 -4.58 0zM42.14 155.75L42.63 154.56L33.57 150.8L33.07 152zM31.03 151.4 a2.29 2.29 0 1 0 4.58 0 a2.29 2.29 0 1 0 -4.58 0zM47.28 147.59L48.2 146.68L41.87 140.35L40.95 141.27zM39.12 140.81 a2.29 2.29 0 1 0 4.58 0 a2.29 2.29 0 1 0 -4.58 0zM55.16 142.03L56.35 141.53L52.75 132.82L51.55 133.32zM49.86 133.07 a2.29 2.29 0 1 0 4.58 0 a2.29 2.29 0 1 0 -4.58 0zM64.57 139.9L65.86 139.9L65.86 130.71L64.57 130.71zM62.92 130.71 a2.29 2.29 0 1 0 4.58 0 a2.29 2.29 0 1 0 -4.58 0zM74.07 141.53L75.27 142.03L79.34 132.19L78.15 131.69zM76.46 131.94 a2.29 2.29 0 1 0 4.58 0 a2.29 2.29 0 1 0 -4.58 0zM82.23 146.68L83.14 147.59L87.48 143.26L86.56 142.35zM84.73 142.8 a2.29 2.29 0 1 0 4.58 0 a2.29 2.29 0 1 0 -4.58 0zM87.8 154.56L88.29 155.75L95.74 152.67L95.24 151.47zM93.2 152.07 a2.29 2.29 0 1 0 4.58 0 a2.29 2.29 0 1 0 -4.58 0zM40.49 164.61 a24.72 24.72 0 1 0 49.44 0 a24.72 24.72 0 1 0 -49.44 0z" fill="rgba(24, 87, 158, 0.78)"></path><path d="M42.83 175.09 A23.72 23.72 0 0 1 67.28 139.98M67.28 139.98 A49.44 49.44 0 0 0 42.83 175.09" fill="rgba(19, 70, 126, 0.78)" fill-rule="nonzero"></path><path d="M62.57 155.85 a4.94 4.94 0 1 0 9.88 0 a4.94 4.94 0 1 0 -9.88 0zM53.3 185.47 a1.24 1.24 0 1 0 2.48 0 a1.24 1.24 0 1 0 -2.48 0zM83 157.22 a2.72 2.72 0 1 0 5.44 0 a2.72 2.72 0 1 0 -5.44 0zM81.09 167.19 a2.47 2.47 0 1 0 4.94 0 a2.47 2.47 0 1 0 -4.94 0zM63.91 185.93 a3.21 3.21 0 1 0 6.42 0 a3.21 3.21 0 1 0 -6.42 0zM41.72 171.19 a2.47 2.47 0 1 0 4.94 0 a2.47 2.47 0 1 0 -4.94 0zM45.83 159.09 a4.94 4.94 0 1 0 9.88 0 a4.94 4.94 0 1 0 -9.88 0zM76.12 178.25 a3.96 3.96 0 1 0 7.92 0 a3.96 3.96 0 1 0 -7.92 0zM58.13 174.13 a4.45 4.45 0 1 0 8.9 0 a4.45 4.45 0 1 0 -8.9 0zM70.23 167.76 a1.98 1.98 0 1 0 3.96 0 a1.98 1.98 0 1 0 -3.96 0z" fill="rgba(19, 70, 126, 0.78)" fill-rule="nonzero"></path><path d="M969.06 189.99L969.06 191.93L978.4 191.93L978.4 189.99zM974.96 190.96 a3.44 3.44 0 1 0 6.88 0 a3.44 3.44 0 1 0 -6.88 0zM966.61 204.25L965.87 206.05L978.23 211.17L978.97 209.37zM975.16 210.27 a3.44 3.44 0 1 0 6.88 0 a3.44 3.44 0 1 0 -6.88 0zM958.89 216.49L957.52 217.86L969.68 230.03L971.06 228.66zM966.93 229.34 a3.44 3.44 0 1 0 6.88 0 a3.44 3.44 0 1 0 -6.88 0zM947.07 224.84L945.28 225.58L950.76 238.8L952.55 238.06zM948.21 238.43 a3.44 3.44 0 1 0 6.88 0 a3.44 3.44 0 1 0 -6.88 0zM932.96 228.03L931.02 228.03L931.02 245.11L932.96 245.11zM928.55 245.11 a3.44 3.44 0 1 0 6.88 0 a3.44 3.44 0 1 0 -6.88 0zM918.7 225.58L916.91 224.84L911.21 238.6L913 239.35zM908.66 238.98 a3.44 3.44 0 1 0 6.88 0 a3.44 3.44 0 1 0 -6.88 0zM906.47 217.86L905.09 216.49L897.05 224.53L898.42 225.91zM894.29 225.22 a3.44 3.44 0 1 0 6.88 0 a3.44 3.44 0 1 0 -6.88 0zM898.12 206.05L897.37 204.25L887.47 208.35L888.21 210.15zM884.4 209.25 a3.44 3.44 0 1 0 6.88 0 a3.44 3.44 0 1 0 -6.88 0zM894.92 191.93L894.92 189.99L887.16 189.99L887.16 191.93zM883.72 190.96 a3.44 3.44 0 1 0 6.88 0 a3.44 3.44 0 1 0 -6.88 0zM897.37 177.68L898.12 175.88L889.61 172.36L888.86 174.15zM885.8 173.25 a3.44 3.44 0 1 0 6.88 0 a3.44 3.44 0 1 0 -6.88 0zM905.09 165.44L906.47 164.07L895 152.6L893.63 153.98zM890.88 153.29 a3.44 3.44 0 1 0 6.88 0 a3.44 3.44 0 1 0 -6.88 0zM916.91 157.09L918.7 156.35L912.89 142.31L911.1 143.06zM908.55 142.68 a3.44 3.44 0 1 0 6.88 0 a3.44 3.44 0 1 0 -6.88 0zM931.02 153.9L932.96 153.9L932.96 137.1L931.02 137.1zM928.55 137.1 a3.44 3.44 0 1 0 6.88 0 a3.44 3.44 0 1 0 -6.88 0zM945.28 156.35L947.07 157.09L951.37 146.72L949.57 145.98zM947.03 146.35 a3.44 3.44 0 1 0 6.88 0 a3.44 3.44 0 1 0 -6.88 0zM957.52 164.07L958.89 165.44L967.9 156.42L966.53 155.05zM963.78 155.74 a3.44 3.44 0 1 0 6.88 0 a3.44 3.44 0 1 0 -6.88 0zM965.87 175.88L966.61 177.68L976.81 173.45L976.06 171.66zM973 172.55 a3.44 3.44 0 1 0 6.88 0 a3.44 3.44 0 1 0 -6.88 0zM894.91 190.96 a37.08 37.08 0 1 0 74.16 0 a37.08 37.08 0 1 0 -74.16 0z" fill="rgba(24, 87, 158, 0.78)"></path><path d="M966.01 205.71 A36.08 36.08 0 0 1 902.26 213.12M902.26 213.12 A74.16 74.16 0 0 0 966.01 205.71" fill="rgba(19, 70, 126, 0.78)" fill-rule="nonzero"></path><path d="M938.42 160.03 a4.08 4.08 0 1 0 8.16 0 a4.08 4.08 0 1 0 -8.16 0zM898.77 201.42 a7.42 7.42 0 1 0 14.84 0 a7.42 7.42 0 1 0 -14.84 0zM929.82 178.44 a7.42 7.42 0 1 0 14.84 0 a7.42 7.42 0 1 0 -14.84 0zM924.7 222.88 a4.82 4.82 0 1 0 9.64 0 a4.82 4.82 0 1 0 -9.64 0zM915.51 177.72 a3.34 3.34 0 1 0 6.68 0 a3.34 3.34 0 1 0 -6.68 0zM952.87 189.8 a7.42 7.42 0 1 0 14.84 0 a7.42 7.42 0 1 0 -14.84 0zM935.91 198.03 a4.82 4.82 0 1 0 9.64 0 a4.82 4.82 0 1 0 -9.64 0zM920.78 205.83 a3.71 3.71 0 1 0 7.42 0 a3.71 3.71 0 1 0 -7.42 0zM947.99 210.93 a5.93 5.93 0 1 0 11.86 0 a5.93 5.93 0 1 0 -11.86 0zM899.58 174.06 a3.34 3.34 0 1 0 6.68 0 a3.34 3.34 0 1 0 -6.68 0z" fill="rgba(19, 70, 126, 0.78)" fill-rule="nonzero"></path><path d="M143.47 494.3L143.47 496.24L149.9 496.24L149.9 494.3zM146.46 495.27 a3.44 3.44 0 1 0 6.88 0 a3.44 3.44 0 1 0 -6.88 0zM141.02 508.55L140.27 510.35L150.56 514.61L151.3 512.81zM147.49 513.71 a3.44 3.44 0 1 0 6.88 0 a3.44 3.44 0 1 0 -6.88 0zM133.3 520.79L131.92 522.16L140.68 530.92L142.05 529.54zM137.92 530.23 a3.44 3.44 0 1 0 6.88 0 a3.44 3.44 0 1 0 -6.88 0zM121.48 529.14L119.69 529.88L126.38 546.04L128.17 545.3zM123.84 545.67 a3.44 3.44 0 1 0 6.88 0 a3.44 3.44 0 1 0 -6.88 0zM107.37 532.33L105.43 532.33L105.43 543.36L107.37 543.36zM102.96 543.36 a3.44 3.44 0 1 0 6.88 0 a3.44 3.44 0 1 0 -6.88 0zM93.11 529.88L91.32 529.14L89.3 534L91.1 534.74zM86.76 534.37 a3.44 3.44 0 1 0 6.88 0 a3.44 3.44 0 1 0 -6.88 0zM80.88 522.16L79.5 520.79L71.75 528.54L73.13 529.91zM69 529.23 a3.44 3.44 0 1 0 6.88 0 a3.44 3.44 0 1 0 -6.88 0zM72.53 510.35L71.78 508.55L66.5 510.74L67.24 512.54zM63.43 511.64 a3.44 3.44 0 1 0 6.88 0 a3.44 3.44 0 1 0 -6.88 0zM69.33 496.24L69.33 494.3L52.66 494.3L52.66 496.24zM49.22 495.27 a3.44 3.44 0 1 0 6.88 0 a3.44 3.44 0 1 0 -6.88 0zM71.78 481.98L72.53 480.18L66.37 477.64L65.63 479.43zM62.56 478.53 a3.44 3.44 0 1 0 6.88 0 a3.44 3.44 0 1 0 -6.88 0zM79.5 469.74L80.88 468.37L77.5 465L76.13 466.37zM73.38 465.68 a3.44 3.44 0 1 0 6.88 0 a3.44 3.44 0 1 0 -6.88 0zM91.32 461.39L93.11 460.65L86.78 445.37L84.99 446.11zM82.44 445.74 a3.44 3.44 0 1 0 6.88 0 a3.44 3.44 0 1 0 -6.88 0zM105.43 458.2L107.37 458.2L107.37 442.64L105.43 442.64zM102.96 442.64 a3.44 3.44 0 1 0 6.88 0 a3.44 3.44 0 1 0 -6.88 0zM119.69 460.65L121.48 461.39L126.75 448.66L124.96 447.92zM122.42 448.29 a3.44 3.44 0 1 0 6.88 0 a3.44 3.44 0 1 0 -6.88 0zM131.92 468.37L133.3 469.74L142.9 460.14L141.53 458.77zM138.77 459.45 a3.44 3.44 0 1 0 6.88 0 a3.44 3.44 0 1 0 -6.88 0zM140.27 480.18L141.02 481.98L148.68 478.81L147.93 477.01zM144.86 477.91 a3.44 3.44 0 1 0 6.88 0 a3.44 3.44 0 1 0 -6.88 0zM69.32 495.27 a37.08 37.08 0 1 0 74.16 0 a37.08 37.08 0 1 0 -74.16 0z" fill="rgba(24, 87, 158, 0.78)"></path><path d="M81.32 467.95 A36.08 36.08 0 0 1 142.58 487.13M142.58 487.13 A74.16 74.16 0 0 0 81.32 467.95" fill="rgba(19, 70, 126, 0.78)" fill-rule="nonzero"></path><path d="M106.18 462.84 a4.08 4.08 0 1 0 8.16 0 a4.08 4.08 0 1 0 -8.16 0zM102.55 499.27 a7.42 7.42 0 1 0 14.84 0 a7.42 7.42 0 1 0 -14.84 0zM109.39 524.47 a6.3 6.3 0 1 0 12.6 0 a6.3 6.3 0 1 0 -12.6 0zM70.47 502.42 a7.42 7.42 0 1 0 14.84 0 a7.42 7.42 0 1 0 -14.84 0zM84.93 466.61 a2.6 2.6 0 1 0 5.2 0 a2.6 2.6 0 1 0 -5.2 0zM93.4 477.98 a6.3 6.3 0 1 0 12.6 0 a6.3 6.3 0 1 0 -12.6 0zM125.89 503.3 a7.42 7.42 0 1 0 14.84 0 a7.42 7.42 0 1 0 -14.84 0zM89.46 524.09 a5.93 5.93 0 1 0 11.86 0 a5.93 5.93 0 1 0 -11.86 0zM87.83 489.31 a1.48 1.48 0 1 0 2.96 0 a1.48 1.48 0 1 0 -2.96 0zM118.21 475.66 a7.42 7.42 0 1 0 14.84 0 a7.42 7.42 0 1 0 -14.84 0z" fill="rgba(19, 70, 126, 0.78)" fill-rule="nonzero"></path><path d="M649.91 283.04L649.91 284.33L656.56 284.33L656.56 283.04zM654.27 283.68 a2.29 2.29 0 1 0 4.58 0 a2.29 2.29 0 1 0 -4.58 0zM648.28 292.54L647.78 293.74L656.95 297.53L657.44 296.34zM654.91 296.94 a2.29 2.29 0 1 0 4.58 0 a2.29 2.29 0 1 0 -4.58 0zM643.13 300.7L642.22 301.61L644.59 303.99L645.51 303.07zM642.76 303.53 a2.29 2.29 0 1 0 4.58 0 a2.29 2.29 0 1 0 -4.58 0zM635.26 306.27L634.06 306.76L637.15 314.23L638.35 313.73zM635.46 313.98 a2.29 2.29 0 1 0 4.58 0 a2.29 2.29 0 1 0 -4.58 0zM625.85 308.39L624.55 308.39L624.55 320.09L625.85 320.09zM622.91 320.09 a2.29 2.29 0 1 0 4.58 0 a2.29 2.29 0 1 0 -4.58 0zM616.34 306.76L615.15 306.27L612.03 313.79L613.23 314.28zM610.34 314.03 a2.29 2.29 0 1 0 4.58 0 a2.29 2.29 0 1 0 -4.58 0zM608.19 301.61L607.27 300.7L602.5 305.46L603.42 306.38zM600.67 305.92 a2.29 2.29 0 1 0 4.58 0 a2.29 2.29 0 1 0 -4.58 0zM602.62 293.74L602.12 292.54L595.74 295.19L596.23 296.38zM593.7 295.78 a2.29 2.29 0 1 0 4.58 0 a2.29 2.29 0 1 0 -4.58 0zM600.49 284.33L600.49 283.04L589.17 283.04L589.17 284.33zM586.88 283.68 a2.29 2.29 0 1 0 4.58 0 a2.29 2.29 0 1 0 -4.58 0zM602.12 274.82L602.62 273.63L595.66 270.75L595.17 271.94zM593.12 271.34 a2.29 2.29 0 1 0 4.58 0 a2.29 2.29 0 1 0 -4.58 0zM607.27 266.67L608.19 265.75L602.73 260.3L601.82 261.21zM599.99 260.76 a2.29 2.29 0 1 0 4.58 0 a2.29 2.29 0 1 0 -4.58 0zM615.15 261.1L616.34 260.6L612.42 251.13L611.22 251.63zM609.53 251.38 a2.29 2.29 0 1 0 4.58 0 a2.29 2.29 0 1 0 -4.58 0zM624.55 258.97L625.85 258.97L625.85 249.13L624.55 249.13zM622.91 249.13 a2.29 2.29 0 1 0 4.58 0 a2.29 2.29 0 1 0 -4.58 0zM634.06 260.6L635.26 261.1L637.78 255.01L636.58 254.52zM634.89 254.76 a2.29 2.29 0 1 0 4.58 0 a2.29 2.29 0 1 0 -4.58 0zM642.22 265.75L643.13 266.67L648.86 260.94L647.95 260.02zM646.11 260.48 a2.29 2.29 0 1 0 4.58 0 a2.29 2.29 0 1 0 -4.58 0zM647.78 273.63L648.28 274.82L652.11 273.24L651.62 272.04zM649.58 272.64 a2.29 2.29 0 1 0 4.58 0 a2.29 2.29 0 1 0 -4.58 0zM600.48 283.68 a24.72 24.72 0 1 0 49.44 0 a24.72 24.72 0 1 0 -49.44 0z" fill="rgba(24, 87, 158, 0.78)"></path><path d="M601.08 278.26 A23.72 23.72 0 0 1 641.92 265.47M641.92 265.47 A49.44 49.44 0 0 0 601.08 278.26" fill="rgba(19, 70, 126, 0.78)" fill-rule="nonzero"></path><path d="M613.57 290.93 a4.94 4.94 0 1 0 9.88 0 a4.94 4.94 0 1 0 -9.88 0zM619.92 302.82 a2.47 2.47 0 1 0 4.94 0 a2.47 2.47 0 1 0 -4.94 0zM632.78 299.95 a4.45 4.45 0 1 0 8.9 0 a4.45 4.45 0 1 0 -8.9 0zM629.42 287.02 a3.96 3.96 0 1 0 7.92 0 a3.96 3.96 0 1 0 -7.92 0zM643.67 287.24 a2.97 2.97 0 1 0 5.94 0 a2.97 2.97 0 1 0 -5.94 0zM623.92 266.94 a4.94 4.94 0 1 0 9.88 0 a4.94 4.94 0 1 0 -9.88 0zM609.39 279.81 a2.72 2.72 0 1 0 5.44 0 a2.72 2.72 0 1 0 -5.44 0zM606.55 268.62 a2.72 2.72 0 1 0 5.44 0 a2.72 2.72 0 1 0 -5.44 0zM601.89 290.78 a2.72 2.72 0 1 0 5.44 0 a2.72 2.72 0 1 0 -5.44 0zM619.65 278.03 a1.73 1.73 0 1 0 3.46 0 a1.73 1.73 0 1 0 -3.46 0z" fill="rgba(19, 70, 126, 0.78)" fill-rule="nonzero"></path><path d="M829.65 66.79L829.65 68.73L842.54 68.73L842.54 66.79zM839.1 67.76 a3.44 3.44 0 1 0 6.88 0 a3.44 3.44 0 1 0 -6.88 0zM827.2 81.04L826.46 82.84L836.69 87.07L837.43 85.28zM833.62 86.18 a3.44 3.44 0 1 0 6.88 0 a3.44 3.44 0 1 0 -6.88 0zM819.48 93.28L818.11 94.65L825.53 102.08L826.91 100.71zM822.78 101.39 a3.44 3.44 0 1 0 6.88 0 a3.44 3.44 0 1 0 -6.88 0zM807.67 101.63L805.87 102.37L812.5 118.37L814.29 117.62zM809.96 117.99 a3.44 3.44 0 1 0 6.88 0 a3.44 3.44 0 1 0 -6.88 0zM793.56 104.82L791.62 104.82L791.62 120.28L793.56 120.28zM789.15 120.28 a3.44 3.44 0 1 0 6.88 0 a3.44 3.44 0 1 0 -6.88 0zM779.3 102.37L777.5 101.63L774.12 109.81L775.91 110.55zM771.57 110.18 a3.44 3.44 0 1 0 6.88 0 a3.44 3.44 0 1 0 -6.88 0zM767.06 94.65L765.69 93.28L754.95 104.02L756.32 105.39zM752.19 104.71 a3.44 3.44 0 1 0 6.88 0 a3.44 3.44 0 1 0 -6.88 0zM758.71 82.84L757.97 81.04L745.1 86.38L745.84 88.17zM742.03 87.27 a3.44 3.44 0 1 0 6.88 0 a3.44 3.44 0 1 0 -6.88 0zM755.52 68.73L755.52 66.79L748.47 66.79L748.47 68.73zM745.03 67.76 a3.44 3.44 0 1 0 6.88 0 a3.44 3.44 0 1 0 -6.88 0zM757.97 54.47L758.71 52.67L748.45 48.42L747.7 50.22zM744.64 49.32 a3.44 3.44 0 1 0 6.88 0 a3.44 3.44 0 1 0 -6.88 0zM765.69 42.23L767.06 40.86L762.88 36.68L761.51 38.05zM758.76 37.37 a3.44 3.44 0 1 0 6.88 0 a3.44 3.44 0 1 0 -6.88 0zM777.5 33.88L779.3 33.14L774.39 21.29L772.59 22.03zM770.05 21.66 a3.44 3.44 0 1 0 6.88 0 a3.44 3.44 0 1 0 -6.88 0zM791.62 30.69L793.56 30.69L793.56 21.57L791.62 21.57zM789.15 21.57 a3.44 3.44 0 1 0 6.88 0 a3.44 3.44 0 1 0 -6.88 0zM805.87 33.14L807.67 33.88L811.64 24.29L809.85 23.55zM807.3 23.92 a3.44 3.44 0 1 0 6.88 0 a3.44 3.44 0 1 0 -6.88 0zM818.11 40.86L819.48 42.23L832.37 29.34L831 27.97zM828.25 28.66 a3.44 3.44 0 1 0 6.88 0 a3.44 3.44 0 1 0 -6.88 0zM826.46 52.67L827.2 54.47L832.1 52.44L831.36 50.65zM828.29 51.54 a3.44 3.44 0 1 0 6.88 0 a3.44 3.44 0 1 0 -6.88 0zM755.51 67.76 a37.08 37.08 0 1 0 74.16 0 a37.08 37.08 0 1 0 -74.16 0z" fill="rgba(24, 87, 158, 0.78)"></path><path d="M767 40.92 A36.08 36.08 0 0 1 828.6 58.94M828.6 58.94 A74.16 74.16 0 0 0 767 40.92" fill="rgba(19, 70, 126, 0.78)" fill-rule="nonzero"></path><path d="M795.23 46 a7.42 7.42 0 1 0 14.84 0 a7.42 7.42 0 1 0 -14.84 0zM763.75 51.41 a7.42 7.42 0 1 0 14.84 0 a7.42 7.42 0 1 0 -14.84 0zM809.04 74.1 a7.42 7.42 0 1 0 14.84 0 a7.42 7.42 0 1 0 -14.84 0zM786.74 73.37 a7.42 7.42 0 1 0 14.84 0 a7.42 7.42 0 1 0 -14.84 0zM792.47 93.25 a5.19 5.19 0 1 0 10.38 0 a5.19 5.19 0 1 0 -10.38 0zM773.93 78.88 a2.97 2.97 0 1 0 5.94 0 a2.97 2.97 0 1 0 -5.94 0zM771.3 96.91 a1.48 1.48 0 1 0 2.96 0 a1.48 1.48 0 1 0 -2.96 0zM759.41 83.18 a1.48 1.48 0 1 0 2.96 0 a1.48 1.48 0 1 0 -2.96 0zM762.69 68.92 a3.34 3.34 0 1 0 6.68 0 a3.34 3.34 0 1 0 -6.68 0zM815.83 53.76 a1.85 1.85 0 1 0 3.7 0 a1.85 1.85 0 1 0 -3.7 0z" fill="rgba(19, 70, 126, 0.78)" fill-rule="nonzero"></path></g><defs><mask id="SvgjsMask1195"><rect width="1000" height="560" fill="#ffffff"></rect></mask><linearGradient x1="11%" y1="-19.64%" x2="89%" y2="119.64%" gradientUnits="userSpaceOnUse" id="SvgjsLinearGradient1196"><stop stop-color="rgba(14, 42, 71, 1)" offset="0"></stop><stop stop-color="rgba(0, 54, 124, 1)" offset="1"></stop></linearGradient></defs></svg>