<svg xmlns="http://www.w3.org/2000/svg" version="1.1" xmlns:xlink="http://www.w3.org/1999/xlink" xmlns:svgjs="http://svgjs.com/svgjs" width="1000" height="560" preserveAspectRatio="none" viewBox="0 0 1000 560"><g mask="url(&quot;#SvgjsMask1082&quot;)" fill="none"><rect width="1000" height="560" x="0" y="0" fill="rgba(41, 128, 185, 1)"></rect><path d="M -342.5816396900686,312 C -275.78,264.8 -142.18,73 -8.581639690068558,76 C 125.02,79 191.82,318.6 325.4183603099314,327 C 459.02,335.4 525.82,98.8 659.4183603099315,118 C 793.02,137.2 925.3,403 993.4183603099315,423 C 1061.53,443 998.68,259 1000,218" stroke="rgba(52, 152, 219, 1)" stroke-width="2"></path><path d="M -1.3634394153169183,396 C 65.44,340 199.04,125.8 332.6365605846831,116 C 466.24,106.2 533.04,344 666.6365605846831,347 C 800.24,350 867.04,101 1000.6365605846831,131 C 1134.24,161 1334.76,502.6 1334.6365605846831,497 C 1334.51,491.4 1066.93,181.8 1000,103" stroke="rgba(52, 152, 219, 1)" stroke-width="2"></path><path d="M -649.0749986349646,222 C -582.27,235.4 -448.67,315.2 -315.0749986349646,289 C -181.47,262.8 -114.67,64.6 18.925001365035428,91 C 152.53,117.4 219.33,400.8 352.9250013650354,421 C 486.53,441.2 557.51,206.2 686.9250013650354,192 C 816.34,177.8 937.39,318.4 1000,350" stroke="rgba(52, 152, 219, 1)" stroke-width="2"></path><path d="M -639.9242716517945,409 C -573.12,380 -439.52,257.4 -305.9242716517944,264 C -172.32,270.6 -105.52,440.8 28.075728348205587,442 C 161.68,443.2 228.48,298.6 362.0757283482056,270 C 495.68,241.4 568.49,319 696.0757283482055,299 C 823.66,279 939.22,195.8 1000,170" stroke="rgba(52, 152, 219, 1)" stroke-width="2"></path></g><defs><mask id="SvgjsMask1082"><rect width="1000" height="560" fill="#ffffff"></rect></mask></defs></svg>